<?xml version="1.0" standalone="no"?>
<!DOCTYPE svg PUBLIC "-//W3C//DTD SVG 20010904//EN"
 "http://www.w3.org/TR/2001/REC-SVG-20010904/DTD/svg10.dtd">
<svg version="1.0" xmlns="http://www.w3.org/2000/svg"
 width="500.000000pt" height="500.000000pt" viewBox="0 0 500.000000 500.000000"
 preserveAspectRatio="xMidYMid meet">

<g transform="translate(0.000000,500.000000) scale(0.100000,-0.100000)"
fill="#000000" stroke="none">
<path d="M2706 4572 c-8 -13 55 -29 89 -22 l30 6 -34 12 c-40 14 -78 16 -85 4z"/>
<path d="M3278 4562 c-2 -9 7 -32 20 -49 30 -41 23 -41 -30 -3 -39 29 -68 38
-68 22 0 -4 27 -36 59 -70 142 -151 268 -406 233 -469 -9 -15 -14 -13 -46 22
-40 44 -42 43 -21 -8 43 -103 103 -439 83 -469 -6 -10 -8 -10 -8 2 0 33 -18
-9 -28 -67 -13 -74 -47 -157 -62 -148 -5 3 -10 23 -10 44 0 47 -24 190 -51
296 -19 78 -89 268 -96 262 -2 -2 8 -37 22 -78 33 -100 53 -198 61 -305 7 -98
-9 -285 -30 -355 -12 -40 -14 -42 -19 -19 -3 14 -11 79 -17 145 -23 258 -75
418 -198 621 -41 67 -116 169 -132 179 -17 10 -11 -4 14 -38 13 -18 30 -50 37
-72 16 -49 29 -66 29 -39 0 11 -5 25 -12 32 -6 6 -9 14 -6 18 10 9 58 -92 58
-121 0 -18 -4 -24 -12 -19 -8 5 -9 2 -4 -11 3 -10 -1 -40 -10 -67 -21 -63 -12
-73 10 -13 l18 45 17 -22 c40 -51 111 -270 111 -340 l0 -37 -57 35 c-31 19
-63 34 -70 34 -7 0 -13 4 -13 8 0 4 -9 8 -20 9 -26 2 -26 -20 1 -64 l21 -34
-33 19 c-19 10 -49 40 -68 66 -28 39 -32 50 -20 57 12 8 11 11 -3 20 -16 9
-31 13 -26 7 5 -8 -25 -48 -35 -48 -7 1 -24 20 -38 43 -23 36 -27 57 -33 155
-3 62 -13 133 -22 157 -18 55 -56 137 -50 110 3 -11 8 -91 12 -177 6 -139 5
-161 -10 -184 -11 -16 -23 -23 -33 -20 -10 4 -13 2 -10 -8 4 -10 1 -13 -9 -9
-7 3 -14 12 -14 20 0 8 -5 11 -10 8 -7 -4 -3 -19 10 -41 12 -19 18 -34 14 -34
-4 0 2 -9 14 -20 28 -27 31 -110 5 -131 -14 -12 -16 -12 -8 0 5 10 4 12 -3 7
-7 -4 -12 -22 -12 -40 0 -25 -5 -35 -19 -39 -14 -3 -18 -1 -14 9 4 10 0 12
-13 7 -11 -4 -15 -3 -11 4 9 14 -29 47 -43 38 -6 -3 -9 -1 -8 5 4 15 -62 52
-84 46 -12 -3 -15 1 -11 12 4 9 2 13 -5 9 -6 -4 -13 1 -15 10 -4 17 -5 17 -6
0 0 -10 10 -38 24 -63 27 -49 24 -55 -13 -21 l-25 22 12 -22 c26 -51 -6 -45
-60 12 -23 24 -46 42 -50 39 -4 -2 -11 6 -15 18 -3 12 -17 33 -29 46 l-23 25
1 -26 c1 -14 5 -23 8 -21 4 2 9 -13 12 -34 12 -82 30 -149 49 -179 19 -33 38
-43 38 -22 0 6 7 4 15 -5 8 -8 15 -22 15 -30 0 -9 6 -13 14 -10 7 3 16 -2 19
-10 4 -9 14 -16 22 -16 9 0 13 -4 10 -10 -3 -5 -2 -10 4 -10 5 0 12 8 14 18 4
16 5 16 6 0 1 -12 9 -18 24 -18 13 0 29 -6 35 -12 7 -7 17 -13 22 -13 4 0 17
-10 28 -23 11 -13 30 -24 41 -25 12 -1 21 -5 21 -9 0 -4 3 -7 8 -6 4 0 24 -6
44 -15 21 -10 45 -17 55 -17 32 -1 56 -26 48 -52 -5 -18 2 -14 33 20 42 45 59
51 69 27 6 -18 -23 -55 -44 -55 -33 0 -8 -116 36 -164 l26 -29 -30 7 c-20 4
-25 4 -16 -3 22 -14 140 -22 186 -12 32 7 34 9 13 10 l-27 1 25 25 c32 32 73
123 76 168 1 24 6 33 15 30 7 -3 11 -9 8 -13 -3 -4 2 -10 10 -14 39 -15 -2
-168 -50 -186 -31 -12 -33 -19 -2 -12 12 2 39 24 59 49 l38 44 -6 -33 c-10
-53 -46 -150 -68 -183 -27 -40 -128 -132 -157 -143 -5 -2 -9 -10 -9 -18 0 -10
6 -11 23 -5 12 5 22 15 22 22 0 8 7 14 15 14 8 0 15 5 15 11 0 6 27 34 61 61
66 56 130 125 147 161 5 12 14 22 19 22 28 0 -16 -123 -65 -184 -37 -45 -68
-63 -137 -84 l-35 -10 43 5 c34 5 42 3 42 -10 0 -31 -48 -125 -85 -165 -54
-60 -205 -154 -438 -270 -106 -54 -113 -53 -264 24 -297 152 -400 236 -447
364 -36 96 -39 102 -59 112 -9 4 -24 11 -33 16 -8 4 -15 9 -14 12 1 3 -14 22
-34 43 -32 34 -35 43 -33 88 2 41 -2 53 -20 67 -28 22 -94 165 -127 273 -38
125 -50 242 -42 409 7 156 7 159 26 268 6 40 10 75 7 78 -19 20 -81 -503 -74
-621 l6 -80 -15 55 c-8 31 -17 129 -21 223 -3 92 -9 170 -13 172 -9 5 -53
-140 -79 -260 -11 -49 -36 -129 -55 -177 -50 -125 -55 -193 -21 -283 86 -225
86 -227 92 -337 4 -93 2 -118 -20 -195 -14 -48 -30 -122 -37 -163 -6 -41 -18
-104 -26 -140 -8 -36 -19 -108 -24 -160 -13 -124 -19 -152 -37 -172 -12 -14
-13 -23 -4 -49 22 -63 -9 -46 -49 26 l-22 40 7 -35 c4 -19 9 -43 12 -54 3 -11
1 -16 -5 -12 -25 15 -20 -18 9 -60 17 -26 27 -50 23 -54 -9 -9 -86 68 -92 92
-5 22 -59 71 -71 64 -7 -5 -11 -51 -11 -129 0 -139 15 -202 60 -259 17 -20 30
-39 30 -42 0 -30 -87 56 -111 109 -30 68 -68 293 -70 420 l0 50 -19 -65 c-11
-36 -20 -94 -20 -130 -1 -43 -4 -58 -9 -45 -7 18 -9 16 -15 -11 -21 -95 -6
-197 42 -284 20 -36 37 -69 38 -75 0 -5 2 -18 2 -28 1 -11 7 -15 13 -11 12 7
29 -13 29 -36 0 -13 -1 -13 -10 0 -8 13 -10 12 -10 -2 0 -10 6 -18 13 -18 8 0
7 -3 -3 -10 -19 -12 -31 -1 -70 61 -25 38 -38 49 -58 49 -38 0 -127 93 -142
150 -7 25 -17 51 -22 58 -7 8 -9 50 -6 115 4 64 3 89 -3 67 -16 -71 -13 -241
6 -300 21 -64 44 -119 45 -106 0 6 11 -6 25 -25 14 -19 24 -41 22 -49 -6 -24
34 -76 89 -113 63 -43 83 -50 101 -36 11 9 18 7 36 -9 12 -11 33 -25 47 -31
14 -6 57 -36 95 -66 48 -38 90 -62 134 -75 72 -23 85 -24 75 -9 -8 13 63 82
76 74 5 -3 35 -8 67 -10 32 -3 64 -11 72 -20 13 -13 13 -15 1 -15 -9 0 -6 -6
8 -16 33 -23 17 -36 -44 -33 -29 2 -57 0 -60 -4 -4 -3 1 -18 10 -32 14 -22 22
-25 47 -20 23 5 36 1 60 -19 17 -14 34 -26 37 -26 4 0 13 -4 21 -9 11 -7 6
-18 -24 -55 -21 -26 -36 -49 -33 -51 2 -3 26 9 52 25 25 17 51 30 55 30 9 0
31 -77 31 -109 0 -12 5 -21 10 -21 6 0 10 9 10 20 0 10 16 35 36 55 47 47 64
35 64 -44 0 -72 19 -90 98 -97 103 -8 884 -5 1029 4 88 6 148 14 158 22 43 35
-2 -112 -50 -165 -31 -33 -32 -33 -107 -30 -42 2 -86 9 -98 15 -12 6 -24 10
-26 7 -12 -11 109 -67 146 -67 11 0 20 -4 20 -9 0 -10 -34 -21 -67 -21 -12 0
-25 -5 -29 -11 -10 -17 83 -1 126 21 19 11 58 26 85 35 140 45 265 176 265
278 0 81 113 182 255 227 125 40 182 77 301 195 97 96 117 121 153 196 22 47
41 93 41 101 0 9 13 40 28 69 37 71 77 270 69 346 -7 64 -11 71 -37 56 -17
-11 -19 -7 -25 75 -4 48 -11 118 -15 156 -7 55 -6 72 6 83 16 17 18 33 4 33
-5 0 -10 5 -10 12 0 29 42 -32 59 -86 13 -42 19 -53 20 -34 1 14 6 28 11 30 6
2 -7 32 -28 68 -38 65 -77 164 -61 154 5 -3 6 2 3 10 -3 9 -10 16 -14 16 -4 0
-11 7 -14 16 -4 10 -2 13 7 8 6 -4 4 2 -6 13 -9 11 -14 23 -10 26 3 4 1 7 -5
7 -7 0 -12 7 -12 16 0 9 -13 28 -29 43 -21 20 -30 40 -36 78 -6 44 -16 63 -76
135 -39 45 -86 116 -105 156 -20 39 -38 72 -40 72 -3 0 -2 -4 1 -10 3 -5 -1
-22 -9 -37 -8 -16 -15 -23 -16 -16 0 7 -7 10 -15 7 -19 -8 -19 4 -2 25 15 17
10 99 -14 272 -9 61 -7 111 6 245 10 94 15 195 11 227 -4 45 -3 58 7 54 51
-21 50 -21 42 4 -17 52 -79 173 -105 203 -29 33 -49 107 -75 286 -46 302 -41
281 -77 315 -61 58 -109 84 -139 78 -25 -5 -30 -1 -53 46 -15 28 -35 57 -46
63 -19 12 -29 51 -12 46 4 -1 20 5 35 13 28 15 26 15 -52 17 -67 1 -80 -2 -83
-16z m237 -232 c52 -52 73 -64 56 -31 -9 15 -7 18 7 17 23 -1 28 -10 53 -83
17 -51 18 -65 7 -76 -20 -22 -88 8 -88 39 0 22 -37 94 -44 86 -4 -4 -6 -2 -4
3 1 6 -9 26 -25 46 -51 67 -30 67 38 -1z m89 -665 c37 -68 70 -180 81 -280 6
-46 5 -57 -5 -49 -11 11 -22 45 -40 129 -5 22 -25 88 -44 146 -20 59 -36 109
-36 113 0 16 11 1 44 -59z m-738 -267 c3 -10 10 -18 15 -18 5 0 9 -8 9 -18 0
-10 5 -23 12 -30 16 -16 11 -18 -49 -25 l-53 -6 0 107 0 107 30 -50 c16 -27
32 -58 36 -67z m124 -83 c0 -5 -5 -3 -10 5 -5 8 -10 20 -10 25 0 6 5 3 10 -5
5 -8 10 -19 10 -25z m25 -89 c25 -31 35 -51 27 -54 -7 -2 -10 -8 -6 -13 3 -5
2 -9 -1 -9 -3 0 -37 -5 -75 -11 l-69 -10 -46 37 c-28 24 -45 46 -45 60 0 19 7
23 52 29 28 4 65 13 82 20 17 8 33 11 37 7 3 -4 23 -29 44 -56z m34 52 c11
-11 12 -10 6 1 -5 9 -4 12 3 7 7 -4 17 -17 24 -29 11 -21 10 -21 -8 -7 -19 14
-19 14 0 -7 10 -13 23 -20 29 -16 6 4 7 1 2 -6 -4 -7 1 -22 13 -34 10 -12 24
-37 30 -54 l11 -33 -27 17 c-15 10 -30 23 -35 30 -4 7 -13 18 -20 25 -16 18
-71 90 -81 106 -5 8 0 12 16 12 13 0 30 -6 37 -12z m29 -124 c14 -15 14 -16
-3 -13 -10 2 -20 10 -23 17 -5 17 6 15 26 -4z m557 -56 c5 -35 9 -73 11 -85 1
-13 -1 -25 -6 -28 -8 -5 -30 102 -30 148 0 52 18 26 25 -35z m-801 10 c-3 -5
-13 -8 -22 -8 -13 0 -14 2 -4 8 7 5 10 16 6 28 -6 18 -6 18 9 -1 8 -11 13 -23
11 -27z m751 -186 c-7 -63 -60 -182 -83 -190 -18 -6 -10 38 16 98 11 25 26 68
32 95 18 77 19 80 31 68 7 -7 9 -33 4 -71z m-489 -17 c15 -32 15 -37 0 -60
-15 -23 -23 -25 -86 -25 -47 0 -70 4 -70 12 0 6 -3 8 -7 5 -3 -4 -12 5 -20 19
-10 20 -10 30 -2 40 15 18 28 18 50 -2 24 -21 62 -12 86 21 24 32 29 31 49
-10z m-1709 -87 c-3 -7 -5 -2 -5 12 0 14 2 19 5 13 2 -7 2 -19 0 -25z m168
-35 c7 -29 8 -53 4 -53 -14 0 -38 43 -45 79 -6 28 -4 33 11 30 13 -3 22 -19
30 -56z m1835 -14 c0 -5 5 -7 10 -4 6 3 10 -3 10 -15 0 -12 -4 -18 -10 -15 -5
3 -10 4 -10 1 0 -2 -3 -13 -6 -23 -5 -15 -4 -16 5 -3 8 11 10 -5 7 -65 l-5
-80 16 42 c20 50 40 62 52 30 14 -35 38 -126 51 -195 9 -41 16 -59 21 -50 6 8
9 2 9 -19 0 -18 5 -33 10 -33 6 0 15 -12 21 -27 16 -43 49 -106 66 -125 12
-14 15 -37 14 -97 -1 -47 2 -82 8 -86 7 -4 11 15 11 56 0 55 2 60 16 48 8 -7
22 -26 31 -43 9 -17 29 -47 44 -66 62 -79 99 -187 102 -300 2 -64 1 -66 -51
-135 -146 -192 -152 -197 -218 -201 -23 -2 -73 -12 -110 -23 -38 -11 -86 -22
-108 -26 -21 -3 -35 -9 -32 -12 3 -3 44 2 91 12 70 15 88 16 98 5 9 -10 9 -13
-1 -17 -6 -3 -10 -8 -7 -13 3 -4 -19 -11 -47 -16 l-53 -7 47 -16 c26 -9 51
-20 55 -26 5 -5 7 -9 5 -9 -2 1 -24 -5 -49 -12 -56 -17 -96 -18 -181 -3 l-64
11 31 16 c17 8 29 17 26 20 -3 3 2 16 10 29 15 22 14 23 -8 23 -44 0 -59 108
-35 248 11 68 5 128 -12 117 -6 -3 -10 -3 -10 2 0 4 -14 24 -31 43 l-31 35 21
-36 c23 -40 19 -52 -13 -39 -12 4 -54 7 -93 5 -64 -2 -70 -1 -66 16 5 18 -20
47 -67 80 l-23 15 22 57 c11 32 21 76 21 97 0 35 -5 43 -40 66 -46 31 -48 39
-17 65 20 17 112 69 123 69 2 0 3 -30 2 -67 -1 -38 2 -94 7 -125 7 -55 9 -57
36 -54 62 7 114 67 123 141 16 133 16 146 -2 136 -9 -4 -23 -6 -31 -3 -10 3
-12 0 -7 -13 5 -14 4 -16 -7 -7 -8 7 -17 8 -22 4 -4 -4 11 22 34 57 46 72 62
119 92 271 11 58 29 137 39 175 10 39 21 82 24 98 5 20 12 27 31 27 14 0 25
-5 25 -11z m80 -52 c0 -23 -17 -47 -32 -47 -4 0 -8 16 -8 35 0 28 4 35 20 35
14 0 20 -7 20 -23z m359 -1 c-2 -2 -15 -7 -29 -10 l-25 -7 25 15 c21 12 42 14
29 2z m-2173 -69 c7 -21 8 -21 18 5 l11 26 48 -44 47 -45 2 -202 2 -202 6 190
c3 105 7 184 8 178 1 -7 8 -13 15 -13 14 0 37 -130 37 -209 0 -23 4 -40 9 -37
17 11 33 -24 39 -91 l7 -68 47 -25 c26 -13 50 -22 53 -18 4 3 -4 24 -17 47
-16 29 -20 43 -12 51 8 8 30 -10 78 -65 74 -82 75 -91 15 -115 -16 -7 -37 -26
-45 -42 -16 -31 -10 -65 22 -126 21 -41 17 -59 -23 -96 l-38 -35 28 -49 c27
-50 36 -115 17 -127 -5 -3 -22 6 -37 22 -16 15 -30 26 -33 25 -3 -1 -5 4 -5
11 -1 6 -6 11 -12 10 -6 -1 -10 5 -9 15 1 11 -8 18 -22 20 -12 2 -20 7 -17 12
9 14 -16 23 -28 11 -6 -6 -24 -11 -40 -11 -25 0 -28 -2 -17 -15 9 -10 15 -65
18 -160 5 -142 4 -145 -16 -145 -23 0 -29 16 -52 133 -16 81 -23 65 -10 -21 8
-50 8 -81 1 -109 -19 -68 -19 -68 -107 -48 -104 24 -132 37 -185 81 -79 65
-124 173 -134 314 -8 114 -2 142 91 367 73 177 100 250 138 372 14 47 34 93
43 104 13 13 19 41 21 93 4 61 7 73 18 63 7 -6 16 -21 20 -32z m2104 -130 c0
-34 7 -46 46 -83 82 -78 106 -99 112 -100 21 -3 42 -18 42 -30 0 -8 12 -19 26
-24 19 -7 24 -15 20 -28 -6 -16 -5 -16 8 1 19 24 35 21 48 -10 7 -16 25 -44
40 -63 53 -69 78 -134 87 -228 9 -100 -1 -266 -24 -392 -9 -47 -18 -98 -21
-115 -27 -166 -21 -152 -86 -190 -32 -19 -64 -35 -70 -35 -10 0 -8 59 4 110 2
9 -6 16 -20 18 -18 3 -22 8 -18 23 20 64 20 60 -8 53 -36 -9 -34 14 4 51 30
29 37 58 21 84 -8 12 -18 8 -57 -22 -25 -20 -50 -34 -55 -31 -5 3 10 42 34 87
40 78 42 86 45 182 3 98 -1 128 -42 278 -22 79 -35 101 -106 182 -83 94 -103
140 -104 238 -1 72 1 80 24 97 23 18 26 18 38 3 6 -9 12 -35 12 -56z m-530
-144 c-11 -17 -11 -17 -6 0 3 10 7 26 7 35 1 15 2 15 6 0 2 -10 -1 -25 -7 -35z
m-456 -491 c6 -10 -36 -32 -63 -32 -30 0 -128 -63 -146 -94 -10 -15 -17 -45
-17 -67 1 -61 -29 -62 -43 0 -6 26 -4 32 6 25 7 -4 0 11 -16 33 -24 33 -65 63
-97 69 -5 1 -11 2 -14 3 -4 0 -1 8 6 16 10 12 7 13 -18 5 -34 -9 -93 7 -118
32 -12 11 -13 21 -4 42 5 15 10 43 10 61 0 29 4 36 27 41 22 6 31 1 55 -27 94
-113 79 -104 165 -104 55 -1 77 -4 76 -13 -8 -37 92 30 107 72 6 17 23 43 38
59 l27 28 6 -69 c4 -39 9 -75 13 -80z m-323 -112 l24 -20 -25 4 c-14 3 -28 5
-31 5 -4 1 -9 8 -13 16 -8 21 17 19 45 -5z m245 -1 c3 -6 -1 -10 -12 -9 -36 4
-55 0 -49 -10 3 -6 -1 -7 -9 -4 -19 7 -21 20 -3 27 22 10 66 7 73 -4z m-437
-63 c57 -47 101 -90 101 -99 0 -1 -21 -1 -47 1 -55 4 -50 -9 10 -28 22 -7 54
-22 73 -34 27 -17 33 -27 33 -56 1 -54 -10 -64 -59 -56 -76 12 -130 50 -130
91 0 15 -18 45 -45 75 -25 28 -45 55 -45 60 0 6 20 10 45 10 41 0 45 2 36 18
-5 9 -19 27 -30 39 -21 23 -26 33 -15 33 4 0 37 -24 73 -54z m571 -69 c-1 -16
-31 -52 -57 -65 -32 -17 -133 -27 -133 -13 0 6 15 11 33 11 17 0 50 5 72 12
l40 11 -33 8 c-18 3 -42 4 -53 2 -30 -8 -23 5 14 24 33 17 97 32 110 26 4 -2
7 -10 7 -16z m-303 -29 c-3 -8 -6 -5 -6 6 -1 11 2 17 5 13 3 -3 4 -12 1 -19z
m-1389 -35 c-4 -15 36 -89 84 -154 50 -69 90 -94 322 -210 91 -45 265 -209
307 -289 33 -61 46 -84 72 -119 12 -16 17 -42 17 -84 0 -57 -17 -127 -30 -127
-3 0 -12 28 -19 62 -28 136 -83 240 -143 270 -18 9 -73 36 -123 61 -49 24
-130 59 -180 77 -173 62 -270 114 -244 130 8 6 8 13 -1 30 -56 105 -102 360
-65 360 3 0 4 -3 3 -7z m751 -56 c17 -50 16 -158 0 -168 -24 -15 -32 8 -37
105 -4 82 -2 96 11 96 9 0 20 -15 26 -33z m1211 16 c0 -10 -7 -61 -16 -113 -8
-52 -16 -104 -17 -115 -2 -11 -10 -35 -20 -52 -10 -18 -13 -33 -8 -33 13 0 8
-26 -11 -47 -8 -10 -22 -31 -29 -48 -16 -35 -40 -42 -62 -20 -9 9 -18 11 -22
6 -3 -6 6 -17 20 -26 14 -8 36 -22 50 -30 14 -9 25 -20 25 -25 0 -21 -37 -51
-82 -66 -57 -19 -61 -25 -13 -17 19 3 35 2 35 -3 0 -5 -15 -34 -33 -64 -45
-76 -55 -104 -62 -187 -4 -40 -8 -73 -10 -73 -1 0 -27 -5 -56 -10 -62 -12
-144 3 -135 25 2 7 -4 15 -15 18 -16 4 -19 15 -21 76 -1 39 -2 81 -2 94 -1 18
5 23 34 26 l35 4 -29 6 c-48 10 -42 51 9 64 11 3 3 5 -18 6 l-39 1 6 198 c3
108 8 221 12 250 5 46 8 52 30 52 35 0 106 17 224 55 58 18 122 37 143 40 20
4 40 11 43 16 9 16 34 10 34 -8z m-1019 -32 c47 -11 106 -28 130 -39 24 -11
51 -22 59 -26 8 -3 31 -16 50 -28 20 -13 50 -32 68 -43 18 -12 33 -31 36 -45
2 -14 3 -106 2 -205 l-1 -180 -115 1 -115 2 84 -13 c59 -10 90 -20 105 -34
l20 -21 -24 -1 -25 -1 25 -7 c22 -6 25 -12 24 -47 -1 -21 -5 -60 -9 -86 -8
-52 -7 -51 -120 -64 -80 -9 -101 -20 -52 -29 20 -4 40 -12 43 -17 7 -11 -61
-81 -87 -91 -9 -3 -28 1 -43 8 -28 15 -28 15 -49 15 -32 0 -67 47 -93 125 -14
44 -33 93 -41 108 -20 40 -8 116 20 126 19 7 19 8 -7 15 -21 5 -27 12 -24 29
3 19 9 22 48 20 41 -1 42 0 17 9 -21 8 -26 15 -23 34 3 13 0 24 -5 24 -5 0 -4
6 3 14 7 8 16 12 19 11 3 -2 24 1 48 7 l42 11 -27 28 c-30 31 -58 41 -31 11
38 -42 1 -56 -72 -26 -31 12 -47 13 -78 5 -63 -18 -83 -15 -83 13 0 14 -10 32
-22 41 -22 15 -17 15 72 9 52 -4 105 -11 118 -15 42 -16 48 -8 7 10 -39 17
-39 18 -17 30 30 16 20 29 -17 23 -17 -2 -29 -8 -26 -12 7 -11 -32 -23 -46
-15 -6 4 -54 8 -107 10 -79 2 -107 7 -152 27 -30 14 -64 35 -74 47 -22 24 -16
25 54 11 25 -6 72 -15 105 -20 33 -6 73 -13 89 -16 17 -4 26 -2 23 3 -4 6 24
11 70 11 42 1 78 4 81 6 2 3 -3 36 -12 75 -9 39 -15 74 -14 78 2 8 -8 59 -19
97 -5 17 -1 18 38 13 24 -3 83 -15 130 -26z m788 26 c-2 -1 -13 -9 -24 -17
-19 -14 -19 -14 -6 3 7 9 18 17 24 17 6 0 8 -1 6 -3z m-192 -46 c1 -14 -3 -18
-13 -14 -17 6 -19 33 -1 33 7 0 13 -9 14 -19z m541 -106 c-21 -64 -38 -56 -37
17 1 35 3 55 6 45 7 -26 23 -10 23 22 0 46 15 46 18 -1 2 -24 -3 -61 -10 -83z
m-74 99 c13 -5 16 -22 16 -78 0 -64 -3 -75 -24 -95 -14 -13 -28 -21 -33 -18
-14 9 7 197 22 197 2 0 10 -3 19 -6z m-641 -189 c18 -9 35 -12 45 -7 43 21 47
12 47 -98 l0 -105 -28 -9 c-24 -9 -30 -7 -38 7 -13 23 -29 22 -29 -3 0 -14 -7
-20 -23 -20 -28 0 -27 -2 -34 114 -7 135 1 152 60 121z m687 -21 c0 -12 -33
-38 -81 -61 -27 -14 -49 -29 -49 -34 0 -5 -6 -9 -12 -9 -23 1 65 70 88 70 14
0 25 8 29 20 6 18 25 29 25 14z m496 -67 c-16 -12 -14 -14 24 -26 39 -12 41
-14 26 -30 -9 -10 -16 -20 -16 -23 0 -8 42 3 58 15 7 5 16 7 20 3 9 -9 -61
-68 -119 -100 -78 -43 -277 -106 -336 -106 -13 0 -13 3 -3 15 15 19 1 20 -25
2 -11 -8 -51 -31 -90 -51 -108 -58 -204 -159 -236 -249 -17 -47 -34 -42 -33
11 1 52 66 162 148 250 92 98 285 218 467 291 13 5 48 10 78 10 48 1 52 -1 37
-12z m379 -17 c-17 -32 -78 -77 -83 -60 -6 17 17 47 48 60 16 7 30 16 30 21 0
5 5 9 10 9 6 0 4 -13 -5 -30z m-820 10 c3 -5 1 -10 -4 -10 -6 0 -11 5 -11 10
0 6 2 10 4 10 3 0 8 -4 11 -10z m170 -40 c-3 -5 -15 -10 -25 -10 -11 0 -31
-12 -45 -26 -14 -14 -65 -44 -113 -65 -48 -22 -98 -46 -112 -52 -14 -7 -50
-37 -80 -67 -45 -45 -61 -71 -87 -140 -18 -47 -33 -93 -33 -101 0 -9 -9 -26
-20 -39 -18 -20 -20 -21 -26 -6 -12 32 5 136 32 189 33 65 146 174 222 215 31
17 89 41 127 54 l70 23 -45 6 c-44 6 -44 6 -10 9 19 2 45 2 57 1 12 -1 24 3
28 9 3 5 20 10 36 10 18 0 28 -4 24 -10z m-357 -54 c-1 -2 -16 -6 -32 -10 -27
-7 -28 -6 -15 11 23 29 33 33 42 17 5 -9 7 -17 5 -18z m-2183 -16 c9 -10 15
-26 11 -35 -9 -25 -46 0 -46 30 0 30 11 32 35 5z m1629 -66 c17 -17 19 -27 10
-62 -5 -19 -12 -23 -38 -20 -25 2 -32 8 -34 30 -4 32 13 68 33 68 7 0 21 -7
29 -16z m84 -36 c-3 -39 -6 -43 -30 -46 -27 -3 -28 -2 -28 42 0 45 1 46 31 46
29 0 30 -1 27 -42z m-5 -221 c0 -49 -4 -91 -7 -94 -11 -11 -56 8 -57 25 0 13
-3 11 -9 -5 -7 -18 -17 -23 -45 -23 l-35 0 0 59 c0 32 3 73 6 91 7 31 8 32 51
27 24 -2 46 0 49 5 3 5 16 8 27 6 21 -3 22 -8 20 -91z m1191 -5 c-34 -18 -41
-9 -14 18 18 18 24 20 31 9 6 -10 0 -18 -17 -27z"/>
<path d="M3361 2422 c-1 -7 -4 -11 -8 -9 -5 3 -9 -6 -9 -20 -2 -24 -2 -24 13
-4 8 12 12 27 10 34 -4 9 -6 9 -6 -1z"/>
<path d="M2975 2070 c-3 -5 -1 -10 4 -10 6 0 11 5 11 10 0 6 -2 10 -4 10 -3 0
-8 -4 -11 -10z"/>
<path d="M3220 1796 c0 -15 18 -31 26 -23 7 7 -7 37 -17 37 -5 0 -9 -6 -9 -14z"/>
<path d="M3672 1525 c-1 -22 -5 -51 -7 -65 l-6 -25 11 25 c6 13 9 42 7 65 l-4
40 -1 -40z"/>
<path d="M1680 2192 c0 -9 25 -33 48 -46 25 -15 11 14 -18 34 -16 12 -30 17
-30 12z"/>
<path d="M1792 2135 c0 -16 2 -22 5 -12 2 9 2 23 0 30 -3 6 -5 -1 -5 -18z"/>
<path d="M1837 1700 c-3 -12 0 -20 8 -20 8 0 11 8 8 20 -3 11 -7 20 -8 20 -1
0 -5 -9 -8 -20z"/>
<path d="M2620 1856 c0 -2 9 -6 20 -9 11 -3 18 -1 14 4 -5 9 -34 13 -34 5z"/>
<path d="M2828 873 c6 -2 18 -2 25 0 6 3 1 5 -13 5 -14 0 -19 -2 -12 -5z"/>
<path d="M2718 863 c12 -2 30 -2 40 0 9 3 -1 5 -23 4 -22 0 -30 -2 -17 -4z"/>
<path d="M2333 4563 c9 -2 23 -2 30 0 6 3 -1 5 -18 5 -16 0 -22 -2 -12 -5z"/>
<path d="M1760 4545 c0 -8 2 -15 4 -15 2 0 6 7 10 15 3 8 1 15 -4 15 -6 0 -10
-7 -10 -15z"/>
<path d="M1648 4516 c-27 -15 -38 -28 -38 -44 0 -13 4 -20 10 -17 19 12 10
-20 -17 -60 -14 -22 -30 -42 -33 -45 -4 -3 -11 -16 -15 -30 -11 -36 -41 -77
-109 -149 -54 -57 -58 -64 -41 -73 20 -12 25 -7 58 52 10 20 23 30 31 27 9 -4
19 6 27 26 20 48 121 196 172 253 46 51 49 71 11 78 -10 1 -36 -7 -56 -18z"/>
<path d="M2046 4131 c-15 -16 -29 -44 -32 -62 -3 -19 -11 -64 -19 -101 -8 -37
-15 -112 -15 -167 0 -103 -7 -120 -39 -88 -10 10 -11 9 -6 -5 5 -12 2 -18 -8
-18 -14 0 -57 -88 -57 -116 0 -8 -5 -14 -11 -14 -6 0 -8 -9 -4 -21 4 -12 3
-19 -1 -16 -5 3 -10 -14 -12 -36 -4 -56 -52 -185 -72 -191 -12 -3 -11 -4 3 -5
15 -1 17 -13 17 -108 0 -118 -10 -151 -35 -119 -25 33 -30 83 -9 103 15 15 15
18 2 21 -11 2 -17 23 -21 85 -18 229 0 499 42 636 11 36 19 66 17 68 -6 6 -56
-135 -75 -212 -32 -132 -43 -231 -44 -395 0 -173 13 -245 64 -362 17 -39 42
-121 55 -184 15 -71 35 -135 55 -171 33 -61 59 -96 67 -89 5 5 24 -9 50 -36 9
-10 21 -18 27 -18 5 0 4 4 -4 9 -7 5 -12 14 -9 21 3 9 9 8 21 -4 9 -10 17 -13
17 -8 0 5 -18 22 -39 36 -48 34 -85 88 -117 172 -28 74 -28 78 -12 68 8 -5 9
-2 4 12 -21 51 -41 164 -30 164 1 0 19 -29 39 -65 20 -36 38 -65 40 -65 2 0
-3 22 -10 49 -15 56 -13 61 25 61 24 0 28 -5 34 -37 3 -21 22 -62 41 -91 l36
-53 -34 6 c-21 4 -37 3 -41 -4 -5 -8 24 -11 94 -11 63 0 99 4 95 10 -3 5 9 16
28 23 40 17 57 63 57 152 l0 58 25 -23 c28 -27 32 -13 9 31 -8 17 -13 33 -10
37 6 5 2 8 -75 52 -39 22 -55 25 -149 25 -102 0 -170 -15 -170 -37 0 -5 -14
-23 -31 -41 l-31 -32 19 40 c19 40 28 65 59 179 l16 59 77 -7 c42 -4 94 -12
116 -18 47 -12 66 -16 82 -17 7 -1 39 -36 71 -78 33 -43 78 -98 102 -123 l42
-45 -39 50 c-67 84 -143 197 -143 212 0 7 -3 13 -7 13 -5 0 -13 10 -19 23 -6
12 -24 44 -39 71 -16 27 -29 56 -30 65 -1 9 -7 27 -15 41 -8 14 -15 30 -16 35
-1 6 -12 33 -25 60 -22 46 -24 62 -23 200 0 150 7 190 47 285 20 49 29 90 19
90 -5 0 -21 -13 -36 -29z m-70 -487 c-4 -9 -9 -15 -11 -12 -3 3 -3 13 1 22 4
9 9 15 11 12 3 -3 3 -13 -1 -22z m60 -158 c8 -45 22 -98 30 -119 8 -20 14 -42
14 -47 0 -13 -177 -13 -184 -1 -9 15 53 241 82 296 l15 30 14 -39 c7 -22 20
-75 29 -120z m-82 109 c-4 -8 -11 -12 -16 -9 -6 4 -5 10 3 15 19 12 19 11 13
-6z m-23 -52 c-9 -16 -10 -15 -9 9 2 16 6 24 11 19 5 -5 5 -17 -2 -28z m-11
-43 c0 -5 -5 -10 -11 -10 -5 0 -7 5 -4 10 3 6 8 10 11 10 2 0 4 -4 4 -10z
m121 -450 c10 -6 19 -20 19 -30 0 -16 -7 -20 -34 -20 -41 0 -65 23 -46 45 15
18 34 19 61 5z m-191 -41 c0 -11 -4 -17 -10 -14 -5 3 -10 13 -10 21 0 8 5 14
10 14 6 0 10 -9 10 -21z m197 -109 c31 -24 61 -25 91 -4 22 15 24 15 38 -2 19
-26 14 -68 -11 -76 -11 -3 -45 -6 -75 -7 -46 -1 -59 3 -78 23 -12 13 -20 31
-17 40 3 9 7 23 10 31 6 20 12 19 42 -5z"/>
<path d="M1321 3965 c-7 -137 -8 -145 -40 -174 -32 -30 -40 -30 -42 3 -1 12
-7 -42 -15 -119 -10 -97 -18 -143 -28 -151 -11 -8 -13 -19 -6 -50 5 -21 12
-88 15 -149 4 -60 13 -148 21 -195 8 -47 18 -114 23 -150 5 -36 9 -52 10 -37
0 16 5 36 10 45 5 10 12 69 16 132 7 125 29 300 50 395 7 33 16 92 19 130 8
82 21 148 47 229 10 33 19 60 19 62 0 1 -11 1 -25 -1 -14 -1 -25 2 -25 8 0 5
-7 4 -15 -3 -17 -14 -22 -6 -28 50 -3 24 -5 16 -6 -25z"/>
<path d="M3236 3957 c3 -10 9 -15 12 -12 3 3 0 11 -7 18 -10 9 -11 8 -5 -6z"/>
<path d="M3005 3709 c-4 -6 -5 -12 -2 -15 2 -3 7 2 10 11 7 17 1 20 -8 4z"/>
<path d="M3840 3650 c0 -3 9 -16 20 -30 l20 -25 0 32 c0 26 -4 31 -20 30 -11
-1 -20 -4 -20 -7z"/>
<path d="M2966 3605 c-9 -26 -7 -32 5 -12 6 10 9 21 6 23 -2 3 -7 -2 -11 -11z"/>
<path d="M2720 2940 c0 -5 5 -10 10 -10 6 0 10 5 10 10 0 6 -4 10 -10 10 -5 0
-10 -4 -10 -10z"/>
<path d="M2721 2839 c-1 -9 8 -27 19 -40 10 -13 19 -18 20 -11 0 6 -4 12 -8
12 -5 0 -13 12 -19 28 -6 16 -11 20 -12 11z"/>
<path d="M4055 2794 c-7 -39 -3 -50 14 -39 11 6 11 75 0 75 -4 0 -10 -16 -14
-36z"/>
<path d="M2370 2362 c0 -17 35 -38 64 -40 24 -2 27 0 16 13 -10 12 -9 15 6 16
14 1 13 3 -6 9 -34 11 -80 12 -80 2z"/>
<path d="M2585 2360 c-16 -4 -23 -8 -15 -9 8 -1 2 -8 -15 -16 -30 -13 -29 -13
22 -11 51 2 88 20 77 37 -6 10 -26 10 -69 -1z"/>
<path d="M4160 2321 c0 -6 4 -13 10 -16 6 -3 7 1 4 9 -7 18 -14 21 -14 7z"/>
<path d="M1015 2143 c-26 -32 -55 -74 -65 -95 -11 -20 -38 -58 -61 -84 -23
-26 -53 -66 -68 -88 -14 -23 -28 -43 -32 -46 -8 -7 -41 -92 -45 -115 -1 -11
-5 -36 -9 -55 -5 -30 -3 -27 14 15 28 69 164 290 179 290 6 0 27 33 47 73 19
40 48 93 65 117 43 63 29 56 -25 -12z"/>
<path d="M4330 1870 c0 -8 5 -22 10 -30 9 -13 10 -13 10 0 0 8 -5 22 -10 30
-9 13 -10 13 -10 0z"/>
<path d="M750 1820 c0 -5 5 -10 11 -10 5 0 7 5 4 10 -3 6 -8 10 -11 10 -2 0
-4 -4 -4 -10z"/>
<path d="M4354 1800 c4 -14 7 -56 7 -95 l0 -70 14 55 c19 75 18 87 -6 113
l-22 22 7 -25z"/>
<path d="M1580 510 c-23 -7 -23 -8 -3 -9 12 -1 25 4 28 9 3 6 5 10 3 9 -2 -1
-14 -5 -28 -9z"/>
</g>
</svg>
